<svg xmlns="http://www.w3.org/2000/svg" viewBox="0 0 512 512"><defs><linearGradient id="g" x1="0" x2="1" y1="0" y2="1"><stop offset="0" stop-color="#f2d29b"/><stop offset="1" stop-color="#263238"/></linearGradient></defs><rect width="512" height="512" rx="92" fill="url(#g)"/><path d="M260 58c61 43 101 115 122 214 17 80 3 132-36 157-42 27-117 28-180 3-53-21-75-64-64-126 17-93 82-186 158-248Z" fill="#f7efe2" opacity=".9"/><path d="M169 342h176v35H169zM190 291h132v35H190zM208 241h98v35h-98z" fill="#263238" opacity=".82"/><circle cx="256" cy="162" r="38" fill="#b13e2d"/><path d="M240 151h32v87h-32z" fill="#fff7e8"/><path d="M214 194h84v25h-84z" fill="#fff7e8"/></svg>